<svg xmlns="http://www.w3.org/2000/svg" xmlns:xlink="http://www.w3.org/1999/xlink" width="500" zoomAndPan="magnify" viewBox="0 0 375 374.999991" height="500" preserveAspectRatio="xMidYMid meet" version="1.0"><defs><g/></defs><g fill="#ffffff" fill-opacity="1"><g transform="translate(93.137622, 242.451692)"><g><path d="M 29.171875 -64.953125 C 26.921875 -65.335938 25.332031 -64.332031 24.40625 -61.9375 C 23.625 -60.46875 23.234375 -58.957031 23.234375 -57.40625 C 23.234375 -54.84375 24.320312 -52.597656 26.5 -50.671875 C 27.8125 -49.347656 29.359375 -48.144531 31.140625 -47.0625 L 34.75 -44.859375 C 44.351562 -39.046875 49.15625 -31.835938 49.15625 -23.234375 C 49.15625 -22.078125 49.113281 -21.226562 49.03125 -20.6875 L 49.03125 -20.5625 C 48.1875 -16.144531 46.675781 -12.347656 44.5 -9.171875 C 42.332031 -6.003906 39.46875 -3.722656 35.90625 -2.328125 C 34.4375 -1.785156 32.925781 -1.316406 31.375 -0.921875 L 34.515625 -0.578125 C 34.359375 0.421875 34.203125 1.929688 34.046875 3.953125 L 33.703125 8.359375 C 33.546875 10.066406 32.734375 10.882812 31.265625 10.8125 L 25.5625 10.21875 C 24.789062 10.21875 24.210938 10.023438 23.828125 9.640625 C 23.429688 9.097656 23.195312 8.476562 23.125 7.78125 L 24.28125 -0.109375 C 21.644531 -0.109375 19.671875 -0.1875 18.359375 -0.34375 C 13.171875 -0.882812 6.664062 -3.285156 -1.15625 -7.546875 C -2.007812 -8.015625 -2.4375 -8.632812 -2.4375 -9.40625 C -2.4375 -9.800781 -2.320312 -10.226562 -2.09375 -10.6875 L 3.015625 -20.921875 C 3.410156 -21.847656 4.109375 -22.3125 5.109375 -22.3125 C 5.578125 -22.3125 5.96875 -22.195312 6.28125 -21.96875 C 10 -19.71875 13.640625 -17.929688 17.203125 -16.609375 C 18.898438 -15.992188 20.445312 -15.6875 21.84375 -15.6875 C 23.550781 -15.6875 24.925781 -16.148438 25.96875 -17.078125 C 27.019531 -18.003906 27.546875 -19.320312 27.546875 -21.03125 C 27.546875 -23.738281 26.34375 -25.984375 23.9375 -27.765625 C 22.769531 -28.703125 20.210938 -30.367188 16.265625 -32.765625 L 13.9375 -34.15625 L 13.71875 -34.28125 C 12.9375 -34.664062 10.648438 -36.445312 6.859375 -39.625 C 6.859375 -39.625 6.835938 -39.640625 6.796875 -39.671875 C 6.753906 -39.710938 6.734375 -39.734375 6.734375 -39.734375 C 4.648438 -41.671875 3.21875 -44.269531 2.4375 -47.53125 C 1.976562 -49.625 1.75 -51.675781 1.75 -53.6875 C 1.75 -58.644531 3.140625 -63.445312 5.921875 -68.09375 C 9.796875 -74.914062 15.992188 -78.828125 24.515625 -79.828125 C 26.535156 -80.066406 28.585938 -80.1875 30.671875 -80.1875 L 31.71875 -88.78125 C 31.875 -89.550781 32.144531 -90.09375 32.53125 -90.40625 C 32.925781 -90.71875 33.507812 -90.875 34.28125 -90.875 L 39.28125 -90.75 C 39.976562 -90.675781 40.535156 -90.40625 40.953125 -89.9375 C 41.378906 -89.476562 41.554688 -88.859375 41.484375 -88.078125 L 40.4375 -78.328125 C 42.914062 -77.316406 44.890625 -75.84375 46.359375 -73.90625 C 48.066406 -71.738281 49.078125 -68.753906 49.390625 -64.953125 C 49.546875 -63.710938 49.625 -62.320312 49.625 -60.78125 C 49.625 -58.988281 49.546875 -56.859375 49.390625 -54.390625 C 49.390625 -52.910156 48.613281 -52.171875 47.0625 -52.171875 L 33.578125 -52.171875 C 32.035156 -52.171875 31.265625 -52.945312 31.265625 -54.5 C 31.265625 -57.132812 31.144531 -59.882812 30.90625 -62.75 C 30.675781 -64.144531 30.132812 -64.878906 29.28125 -64.953125 Z M 36.015625 -66.578125 L 36.015625 -66.359375 L 36.484375 -66.359375 L 36.484375 -66.578125 Z M 39.046875 -62.984375 C 39.046875 -62.984375 39.023438 -63 38.984375 -63.03125 C 38.941406 -63.070312 38.921875 -63.09375 38.921875 -63.09375 L 38.8125 -62.859375 C 38.8125 -62.859375 38.789062 -62.835938 38.75 -62.796875 C 38.71875 -62.765625 38.703125 -62.75 38.703125 -62.75 C 38.617188 -62.59375 38.632812 -62.515625 38.75 -62.515625 C 38.863281 -62.515625 38.960938 -62.554688 39.046875 -62.640625 L 39.28125 -62.859375 Z M 36.375 -57.75 C 36.445312 -57.75 36.484375 -57.828125 36.484375 -57.984375 L 36.375 -58.21875 C 35.988281 -58.21875 35.796875 -58.0625 35.796875 -57.75 Z M 33 -38.578125 C 32.84375 -38.191406 32.800781 -37.863281 32.875 -37.59375 C 32.957031 -37.320312 33 -37.1875 33 -37.1875 L 33.9375 -37.1875 C 33.9375 -37.414062 33.859375 -37.609375 33.703125 -37.765625 L 33.8125 -38 C 33.8125 -38.3125 33.773438 -38.503906 33.703125 -38.578125 Z M 29.75 -37.765625 L 29.75 -38.234375 L 28.703125 -38.234375 L 28.703125 -37.765625 Z M 34.15625 -37.1875 C 33.851562 -37.1875 33.625 -37.144531 33.46875 -37.0625 C 33.46875 -37.0625 33.625 -36.832031 33.9375 -36.375 L 34.859375 -36.84375 L 34.859375 -36.953125 L 35.09375 -37.0625 L 34.625 -37.1875 Z M 31.609375 -32.65625 L 31.84375 -32.53125 L 32.078125 -32.65625 C 32.078125 -32.8125 32 -32.96875 31.84375 -33.125 L 31.609375 -33.234375 L 31.375 -33.46875 L 31.375 -32.65625 Z M 37.875 -32.078125 C 37.414062 -31.835938 37.1875 -31.566406 37.1875 -31.265625 L 37.875 -31.265625 L 38.109375 -31.375 L 38.34375 -31.375 L 38.34375 -31.609375 Z M 37.421875 -29.28125 L 37.421875 -29.75 L 36.375 -29.859375 L 36.375 -29.515625 Z M 41.25 -26.953125 C 41.40625 -26.566406 41.71875 -26.375 42.1875 -26.375 C 42.644531 -26.375 42.875 -26.609375 42.875 -27.078125 C 42.875 -27.234375 42.835938 -27.3125 42.765625 -27.3125 L 42.640625 -27.421875 C 42.566406 -27.421875 42.53125 -27.460938 42.53125 -27.546875 L 41.484375 -27.546875 Z M 37.875 -27.3125 L 37.421875 -27.421875 L 37.0625 -27.078125 L 37.53125 -26.84375 Z M 38.8125 -24.28125 L 38.34375 -24.28125 L 38.109375 -23.46875 L 38.34375 -23.359375 L 38.46875 -23.359375 L 38.578125 -23.234375 L 39.390625 -23.234375 C 39.390625 -23.316406 39.429688 -23.359375 39.515625 -23.359375 L 39.515625 -23.59375 C 39.585938 -23.59375 39.625 -23.671875 39.625 -23.828125 C 39.394531 -23.828125 39.28125 -23.898438 39.28125 -24.046875 Z M 43.34375 -23.828125 C 43.1875 -23.671875 43.148438 -23.515625 43.234375 -23.359375 L 43.234375 -22.890625 C 43.378906 -22.890625 43.570312 -23.003906 43.8125 -23.234375 L 44.046875 -23.359375 L 44.390625 -23.59375 L 44.046875 -23.703125 L 43.8125 -23.828125 Z M 40.5625 -22.546875 C 40.25 -22.546875 40.015625 -22.523438 39.859375 -22.484375 C 39.703125 -22.441406 39.585938 -22.421875 39.515625 -22.421875 L 39.515625 -22.3125 C 39.515625 -21.84375 39.820312 -21.609375 40.4375 -21.609375 L 40.90625 -21.84375 L 41.375 -22.1875 L 41.25 -22.78125 C 41.019531 -22.78125 40.863281 -22.738281 40.78125 -22.65625 Z M 40.671875 -18.359375 C 40.742188 -18.429688 40.78125 -18.546875 40.78125 -18.703125 C 40.78125 -18.785156 40.472656 -19.132812 39.859375 -19.75 C 39.703125 -19.59375 39.625 -19.476562 39.625 -19.40625 L 39.390625 -19.296875 C 39.316406 -19.210938 39.203125 -19.171875 39.046875 -19.171875 L 38.921875 -19.171875 C 38.691406 -19.171875 38.5 -19.210938 38.34375 -19.296875 C 38.113281 -19.367188 37.804688 -19.40625 37.421875 -19.40625 L 37.0625 -19.40625 L 37.0625 -18.9375 L 37.1875 -18.828125 C 37.1875 -18.742188 37.265625 -18.625 37.421875 -18.46875 C 37.878906 -18.394531 38.242188 -18.335938 38.515625 -18.296875 C 38.785156 -18.265625 38.921875 -18.25 38.921875 -18.25 L 39.28125 -18.25 C 39.4375 -18.09375 39.628906 -18.015625 39.859375 -18.015625 L 40.203125 -18.015625 L 40.4375 -18.125 L 40.671875 -18.125 Z M 43.578125 -19.296875 L 42.765625 -19.296875 C 42.765625 -19.054688 42.648438 -18.820312 42.421875 -18.59375 L 43.34375 -18.59375 L 43.34375 -18.828125 Z M 42.640625 -18.46875 L 42.0625 -18.46875 L 42.0625 -17.78125 L 42.640625 -17.78125 Z M 38.921875 -16.609375 C 39.316406 -16.847656 39.515625 -17.046875 39.515625 -17.203125 L 39.515625 -17.65625 L 38.34375 -17.65625 C 38.425781 -17.738281 38.269531 -17.664062 37.875 -17.4375 C 37.800781 -17.351562 37.648438 -17.3125 37.421875 -17.3125 C 36.953125 -17.082031 36.71875 -16.847656 36.71875 -16.609375 L 36.71875 -16.390625 C 36.875 -16.234375 37.1875 -16.15625 37.65625 -16.15625 L 38.109375 -16.15625 Z M 42.640625 -15.34375 C 43.035156 -15.34375 43.234375 -15.535156 43.234375 -15.921875 C 43.234375 -15.992188 43.113281 -16.148438 42.875 -16.390625 L 42.296875 -16.734375 C 41.910156 -16.648438 41.71875 -16.378906 41.71875 -15.921875 C 41.71875 -15.691406 41.875 -15.378906 42.1875 -14.984375 Z M 39.625 -15.921875 C 39.625 -16.148438 39.585938 -16.265625 39.515625 -16.265625 L 38.8125 -16.265625 L 38.34375 -15.921875 L 38.34375 -15.453125 C 38.8125 -15.378906 39.238281 -15.378906 39.625 -15.453125 Z M 15.921875 -15.6875 L 15.921875 -15.34375 L 16.609375 -15.34375 L 16.609375 -15.6875 Z M 37.0625 -14.0625 L 36.953125 -14.296875 C 36.953125 -14.296875 36.929688 -14.3125 36.890625 -14.34375 C 36.859375 -14.382812 36.800781 -14.40625 36.71875 -14.40625 C 36.5625 -14.25 36.484375 -14.09375 36.484375 -13.9375 L 36.484375 -13.484375 C 36.640625 -13.484375 36.71875 -13.519531 36.71875 -13.59375 L 36.953125 -13.59375 L 37.1875 -13.828125 Z M 32.765625 -12.078125 C 32.765625 -12.078125 32.742188 -12.054688 32.703125 -12.015625 C 32.671875 -11.984375 32.613281 -11.96875 32.53125 -11.96875 C 32.84375 -11.8125 33.15625 -11.734375 33.46875 -11.734375 C 33.46875 -12.117188 33.390625 -12.351562 33.234375 -12.4375 C 33.078125 -12.4375 33 -12.394531 33 -12.3125 L 33 -12.203125 C 32.84375 -12.203125 32.765625 -12.160156 32.765625 -12.078125 Z M 38.34375 -12.203125 C 39.039062 -11.972656 39.503906 -11.859375 39.734375 -11.859375 C 39.734375 -12.003906 39.695312 -12.117188 39.625 -12.203125 L 39.625 -12.4375 Z M 18.125 -12.3125 L 17.78125 -11.96875 L 18.25 -11.734375 L 18.59375 -12.203125 Z M 34.15625 -10.21875 C 34.78125 -10.21875 35.09375 -10.414062 35.09375 -10.8125 L 34.515625 -10.921875 C 34.429688 -11.003906 34.238281 -11.046875 33.9375 -11.046875 L 33.703125 -10.34375 C 34.003906 -10.34375 34.15625 -10.300781 34.15625 -10.21875 Z M 31.609375 -10.8125 L 31.609375 -10.21875 L 32.078125 -10.21875 L 32.078125 -10.8125 Z M 21.03125 -8.484375 L 21.03125 -8.140625 L 21.84375 -8.140625 L 21.84375 -8.484375 Z M 33.703125 -8.484375 C 33.546875 -8.484375 33.46875 -8.367188 33.46875 -8.140625 C 33.46875 -7.984375 33.546875 -7.863281 33.703125 -7.78125 L 34.625 -8.484375 Z M 33.703125 -8.484375 "/></g></g></g><g fill="#ffffff" fill-opacity="1"><g transform="translate(151.235709, 242.451692)"><g><path d="M 56.828125 -76.8125 C 57.910156 -76.425781 58.453125 -75.765625 58.453125 -74.828125 L 58.21875 -73.90625 L 39.734375 -14.171875 L 39.625 -14.40625 C 39.238281 -14.25 39.003906 -14.09375 38.921875 -13.9375 C 38.847656 -13.632812 38.695312 -13.363281 38.46875 -13.125 L 39.046875 -12.78125 L 39.390625 -12.78125 L 38.921875 -11.5 L 38.703125 -11.15625 L 38.46875 -10.578125 C 38.46875 -10.421875 38.503906 -10.300781 38.578125 -10.21875 L 36.015625 -2.09375 C 35.710938 -1.007812 34.976562 -0.425781 33.8125 -0.34375 L 17.4375 0 C 16.039062 0 15.222656 -0.617188 14.984375 -1.859375 L 6.625 -40.203125 L 2.203125 -61.8125 L 2.4375 -62.046875 L 2.09375 -62.171875 L 0.8125 -68.4375 L 0.8125 -68.671875 L -1.046875 -77.390625 L -1.046875 -77.859375 C -1.046875 -78.554688 -0.832031 -79.132812 -0.40625 -79.59375 C 0.0195312 -80.0625 0.582031 -80.296875 1.28125 -80.296875 L 15.109375 -80.296875 C 16.347656 -80.296875 17.125 -79.675781 17.4375 -78.4375 L 19.515625 -69.71875 L 18.828125 -69.71875 L 18.828125 -69.25 C 18.898438 -69.25 18.9375 -69.175781 18.9375 -69.03125 L 19.640625 -69.03125 L 19.640625 -69.140625 L 19.875 -68.328125 L 19.40625 -68.328125 L 19.40625 -68.09375 L 19.875 -68.09375 L 27.078125 -37.53125 L 40.671875 -80.40625 C 40.828125 -81.03125 41.210938 -81.515625 41.828125 -81.859375 C 42.453125 -82.210938 43.070312 -82.234375 43.6875 -81.921875 L 44.625 -81.578125 C 44.15625 -81.335938 43.921875 -80.988281 43.921875 -80.53125 L 43.921875 -79.359375 C 43.921875 -78.898438 43.882812 -78.554688 43.8125 -78.328125 C 43.726562 -78.171875 43.492188 -78.015625 43.109375 -77.859375 C 42.492188 -77.546875 42.300781 -77.15625 42.53125 -76.6875 C 42.601562 -76.539062 42.640625 -76.347656 42.640625 -76.109375 C 42.640625 -75.953125 42.601562 -75.875 42.53125 -75.875 C 42.300781 -75.71875 42.1875 -75.640625 42.1875 -75.640625 L 42.1875 -74.015625 C 43.570312 -74.796875 44.382812 -75.378906 44.625 -75.765625 C 44.625 -75.921875 44.703125 -76 44.859375 -76 L 45.3125 -76.34375 C 45.550781 -76.726562 45.671875 -77.234375 45.671875 -77.859375 C 45.671875 -78.015625 45.59375 -78.09375 45.4375 -78.09375 L 45.3125 -78.328125 L 45.3125 -81.34375 Z M 1.15625 -72.28125 C 1.15625 -72.195312 1.210938 -72.117188 1.328125 -72.046875 C 1.453125 -71.972656 1.550781 -71.9375 1.625 -71.9375 C 1.78125 -72.082031 1.78125 -72.195312 1.625 -72.28125 Z M 1.390625 -71.34375 C 1.546875 -71.113281 1.738281 -71.113281 1.96875 -71.34375 L 1.625 -71.46875 L 1.515625 -71.34375 Z M 7.328125 -70.078125 C 7.328125 -70.078125 7.398438 -70.148438 7.546875 -70.296875 C 7.546875 -70.296875 7.523438 -70.316406 7.484375 -70.359375 C 7.453125 -70.398438 7.4375 -70.421875 7.4375 -70.421875 L 7.328125 -70.65625 L 6.96875 -70.65625 L 6.625 -70.421875 C 6.695312 -70.265625 6.890625 -70.109375 7.203125 -69.953125 Z M 16.96875 -70.296875 C 16.96875 -70.066406 17.125 -69.953125 17.4375 -69.953125 L 17.546875 -70.1875 L 17.546875 -70.421875 L 17.3125 -70.65625 L 17.203125 -70.421875 C 17.046875 -70.421875 16.96875 -70.378906 16.96875 -70.296875 Z M 5.921875 -69.609375 C 5.378906 -69.765625 4.953125 -69.84375 4.640625 -69.84375 L 4.1875 -69.71875 L 3.953125 -69.375 C 4.410156 -69.289062 4.640625 -69.097656 4.640625 -68.796875 L 4.875 -68.90625 Z M 8.828125 -68.328125 L 8.828125 -68.796875 C 8.984375 -68.796875 9.0625 -68.753906 9.0625 -68.671875 L 9.296875 -68.671875 C 9.453125 -68.671875 9.644531 -68.789062 9.875 -69.03125 L 9.40625 -69.25 L 8.953125 -69.375 L 8.59375 -69.25 C 8.4375 -69.101562 8.320312 -69.03125 8.25 -69.03125 L 8.25 -68.328125 Z M 14.296875 -68.796875 C 14.296875 -68.710938 14.375 -68.671875 14.53125 -68.671875 C 14.53125 -68.597656 14.601562 -68.5625 14.75 -68.5625 C 14.988281 -68.5625 15.109375 -68.597656 15.109375 -68.671875 L 15.21875 -68.796875 L 14.984375 -69.25 C 14.679688 -69.25 14.453125 -69.175781 14.296875 -69.03125 Z M 17.203125 -68.5625 C 17.503906 -68.332031 17.8125 -68.289062 18.125 -68.4375 L 18.125 -68.671875 L 18.015625 -68.90625 C 17.773438 -68.675781 17.503906 -68.5625 17.203125 -68.5625 Z M 16.03125 -68.21875 C 15.957031 -68.289062 15.765625 -68.328125 15.453125 -68.328125 L 14.75 -68.4375 L 14.75 -67.515625 L 15.21875 -67.515625 C 15.21875 -67.671875 15.335938 -67.75 15.578125 -67.75 L 16.03125 -67.859375 Z M 11.265625 -67.625 L 9.875 -67.625 C 9.800781 -67.550781 9.644531 -67.515625 9.40625 -67.515625 C 8.945312 -67.515625 8.640625 -67.398438 8.484375 -67.171875 L 8.59375 -66.9375 C 8.675781 -66.9375 8.945312 -66.859375 9.40625 -66.703125 L 10.109375 -66.46875 C 10.265625 -66.46875 10.34375 -66.546875 10.34375 -66.703125 C 10.34375 -66.703125 10.359375 -66.71875 10.390625 -66.75 C 10.429688 -66.789062 10.453125 -66.8125 10.453125 -66.8125 L 12.203125 -66.9375 C 12.429688 -67.007812 12.894531 -67.046875 13.59375 -67.046875 L 13.59375 -67.28125 C 13.59375 -67.4375 13.515625 -67.550781 13.359375 -67.625 C 13.128906 -67.625 12.9375 -67.546875 12.78125 -67.390625 L 12.203125 -67.390625 L 11.734375 -67.515625 Z M 10.6875 -66.234375 L 10.8125 -66.234375 L 10.6875 -66.46875 L 10.453125 -66.359375 Z M 13.484375 -66 C 13.484375 -66 13.460938 -66.019531 13.421875 -66.0625 C 13.378906 -66.101562 13.359375 -66.125 13.359375 -66.125 L 12.203125 -66.125 C 12.046875 -65.96875 11.96875 -65.847656 11.96875 -65.765625 C 11.96875 -65.609375 12.023438 -65.472656 12.140625 -65.359375 C 12.253906 -65.242188 12.429688 -65.1875 12.671875 -65.1875 C 13.285156 -65.1875 13.59375 -65.421875 13.59375 -65.890625 L 13.59375 -66 Z M 16.03125 -63.90625 C 16.34375 -63.90625 16.5 -63.984375 16.5 -64.140625 L 16.265625 -64.375 C 16.109375 -64.375 16.03125 -64.21875 16.03125 -63.90625 Z M 9.0625 -62.40625 C 9.0625 -62.476562 9.21875 -62.671875 9.53125 -62.984375 L 8.484375 -63.09375 L 8.484375 -62.75 C 8.484375 -62.675781 8.5 -62.617188 8.53125 -62.578125 C 8.570312 -62.535156 8.59375 -62.476562 8.59375 -62.40625 Z M 10.34375 -61.9375 C 10.113281 -61.9375 9.878906 -61.703125 9.640625 -61.234375 L 10 -61.125 L 11.046875 -61.125 C 11.273438 -61.125 11.425781 -61.160156 11.5 -61.234375 C 11.195312 -61.390625 11.046875 -61.582031 11.046875 -61.8125 L 11.265625 -62.046875 Z M 18.015625 -61.46875 L 18.25 -61.234375 L 18.46875 -61.46875 L 18.25 -61.59375 Z M 18.828125 -59.03125 L 18.125 -59.375 L 18.125 -58.328125 C 18.4375 -58.328125 18.59375 -58.210938 18.59375 -57.984375 C 18.664062 -57.984375 18.820312 -58.097656 19.0625 -58.328125 L 19.40625 -58.6875 Z M 10.8125 -58.796875 L 11.046875 -59.03125 C 10.648438 -59.1875 10.335938 -59.265625 10.109375 -59.265625 C 9.796875 -59.265625 9.640625 -59.148438 9.640625 -58.921875 C 9.640625 -58.765625 9.796875 -58.6875 10.109375 -58.6875 L 10.6875 -58.5625 Z M 4.0625 -57.40625 C 4.0625 -57.632812 3.984375 -57.828125 3.828125 -57.984375 L 3.375 -57.984375 L 3.015625 -57.875 L 3.140625 -57.40625 Z M 11.046875 -55.546875 C 11.046875 -55.460938 11.117188 -55.347656 11.265625 -55.203125 L 11.734375 -55.203125 C 12.046875 -55.347656 12.203125 -55.5 12.203125 -55.65625 C 12.203125 -55.894531 12.046875 -56.015625 11.734375 -56.015625 L 11.265625 -55.890625 C 11.117188 -55.734375 11.046875 -55.617188 11.046875 -55.546875 Z M 15.578125 -56.015625 L 14.984375 -55.65625 C 14.984375 -55.425781 15.179688 -55.234375 15.578125 -55.078125 C 15.648438 -55.160156 15.84375 -55.203125 16.15625 -55.203125 L 16.15625 -55.890625 Z M 18.703125 -48.109375 C 18.546875 -48.265625 18.316406 -48.34375 18.015625 -48.34375 L 17.78125 -47.984375 L 18.25 -47.984375 Z M 25.09375 -40.90625 C 25.25 -40.90625 25.367188 -40.863281 25.453125 -40.78125 C 25.523438 -40.707031 25.675781 -40.671875 25.90625 -40.671875 L 26.03125 -41.140625 Z M 39.625 -32.65625 L 39.625 -33.125 C 39.550781 -33.125 39.472656 -33.101562 39.390625 -33.0625 C 39.316406 -33.019531 39.203125 -33 39.046875 -33 L 39.046875 -32.53125 Z M 15.796875 -16.15625 C 16.109375 -16.15625 16.1875 -16.234375 16.03125 -16.390625 C 16.03125 -17.085938 15.992188 -17.585938 15.921875 -17.890625 L 15.578125 -19.0625 C 15.492188 -19.289062 15.273438 -19.925781 14.921875 -20.96875 C 14.578125 -22.019531 14.328125 -22.894531 14.171875 -23.59375 L 13.828125 -25.09375 L 13.59375 -25.796875 L 13.484375 -27.078125 C 13.398438 -27.234375 13.359375 -27.425781 13.359375 -27.65625 L 13.125 -29.046875 C 12.894531 -29.515625 12.703125 -29.828125 12.546875 -29.984375 C 12.160156 -30.210938 11.890625 -30.441406 11.734375 -30.671875 L 15.453125 -15.796875 C 15.453125 -15.953125 15.566406 -16.070312 15.796875 -16.15625 Z M 33.234375 -27.890625 C 33.460938 -27.890625 34.003906 -28.046875 34.859375 -28.359375 C 34.546875 -28.515625 34.3125 -28.59375 34.15625 -28.59375 L 33.34375 -28.46875 L 32.421875 -28.359375 L 32.765625 -27.890625 Z M 30.90625 -27.890625 C 30.75 -28.046875 30.554688 -28.082031 30.328125 -28 L 29.984375 -27.890625 Z M 39.625 -26.609375 C 39.550781 -26.691406 39.359375 -26.734375 39.046875 -26.734375 L 38.921875 -26.609375 L 38.8125 -26.375 C 38.8125 -26.300781 38.925781 -26.1875 39.15625 -26.03125 L 38.921875 -26.03125 C 39.390625 -25.800781 39.78125 -25.800781 40.09375 -26.03125 L 40.09375 -26.609375 Z M 31.71875 -23.46875 C 31.957031 -23.46875 32.148438 -23.390625 32.296875 -23.234375 C 32.453125 -23.390625 32.53125 -23.585938 32.53125 -23.828125 C 32.226562 -23.828125 32 -23.785156 31.84375 -23.703125 L 31.140625 -23.703125 Z M 34.515625 -19.171875 C 34.515625 -19.171875 34.394531 -19.285156 34.15625 -19.515625 C 33.925781 -19.515625 33.8125 -19.59375 33.8125 -19.75 C 33.425781 -19.59375 33.234375 -19.441406 33.234375 -19.296875 L 33.8125 -19.171875 Z M 31.484375 -19.0625 L 31.03125 -19.0625 L 31.03125 -18.9375 L 31.375 -18.828125 Z M 39.390625 -17.65625 C 39.773438 -17.8125 39.929688 -17.890625 39.859375 -17.890625 L 39.859375 -18.25 L 39.390625 -18.46875 L 39.046875 -18.59375 L 38.921875 -18.359375 C 38.773438 -18.203125 38.703125 -18.085938 38.703125 -18.015625 C 38.703125 -17.773438 38.773438 -17.65625 38.921875 -17.65625 C 39.003906 -17.65625 39.046875 -17.582031 39.046875 -17.4375 C 39.203125 -17.582031 39.316406 -17.65625 39.390625 -17.65625 Z M 29.046875 -17.890625 C 28.742188 -17.890625 28.4375 -17.738281 28.125 -17.4375 C 28.28125 -17.4375 28.359375 -17.394531 28.359375 -17.3125 L 28.59375 -17.078125 L 29.40625 -17.203125 L 29.40625 -17.890625 Z M 32.890625 -14.53125 C 32.890625 -14.757812 32.8125 -14.875 32.65625 -14.875 C 32.5 -15.03125 32.421875 -15.144531 32.421875 -15.21875 L 31.71875 -15.109375 L 31.484375 -14.984375 C 31.484375 -14.523438 31.753906 -14.175781 32.296875 -13.9375 C 32.378906 -14.019531 32.578125 -14.0625 32.890625 -14.0625 Z M 20.796875 -7.328125 C 20.796875 -7.398438 20.914062 -7.4375 21.15625 -7.4375 L 21.03125 -8.015625 C 20.71875 -7.941406 20.367188 -7.710938 19.984375 -7.328125 L 20.328125 -7.203125 C 20.566406 -7.203125 20.722656 -7.242188 20.796875 -7.328125 Z M 15.21875 -6.734375 L 14.40625 -6.5 L 14.53125 -6.28125 L 15.34375 -6.5 Z M 15.21875 -6.734375 "/></g></g></g></svg>