<?xml version="1.0" encoding="utf-8"?>
<!-- Generator: Adobe Illustrator 25.0.1, SVG Export Plug-In . SVG Version: 6.00 Build 0)  -->
<svg version="1.0" id="Layer_1" xmlns="http://www.w3.org/2000/svg" xmlns:xlink="http://www.w3.org/1999/xlink" x="0px" y="0px"
	 viewBox="0 0 906 587.1" style="enable-background:new 0 0 906 587.1;" xml:space="preserve">
<style type="text/css">
	.st0{fill-rule:evenodd;clip-rule:evenodd;fill:#7B42BC;}
</style>
<polygon points="318.5,273.2 292.2,273.2 292.2,257.6 362.4,257.6 362.4,273.2 336.2,273.2 336.2,351.5 318.5,351.5 318.5,273.2 "/>
<path d="M759.2,351.6v-48c0-3.7-1.6-5.5-5.5-5.5s-11.7,2.5-17.9,5.8v47.7h-17.2v-68.7h13.1l1.7,5.8c8.6-4.3,17.9-6.7,27.5-7.2
	c6.6,0,10.7,2.7,13,7.3c8.6-4.4,18-6.9,27.6-7.3c11.4,0,15.5,8,15.5,20.3v49.8h-17.2v-48c0-3.7-1.6-5.5-5.5-5.5
	c-6.3,0.7-12.4,2.6-17.9,5.8v47.7H759.2z M711.9,297.2c-6.3,2.9-12.4,6.2-18.2,10v44.3h-17.2v-68.7H691l1.1,7.6
	c5.6-3.8,11.7-6.8,18.2-9L711.9,297.2L711.9,297.2z M637.7,296.1c-9.2,0-12.7,4.1-12.7,11.8v18.5c0,7.8,3.5,11.9,12.7,11.9
	s12.7-4.1,12.7-11.9v-18.5C650.4,300.3,646.9,296.1,637.7,296.1L637.7,296.1z M637.7,352.9c-23.5,0-30-13-30-27v-17.4
	c0-14,6.3-27.1,29.9-27.1s29.9,13,29.9,27.1v17.4C667.6,339.9,661.3,352.9,637.7,352.9L637.7,352.9z M604.2,267.2
	c-3.2-0.7-6.6-1.1-9.9-1.1c-6.8,0-7.7,3-7.7,8.2v8.6H604l-1,13.7h-16.4v55h-17.2v-55h-11v-13.7h11v-9.6c0-14.2,6.6-21.3,21.8-21.3
	c5,0,10,0.7,14.8,2L604.2,267.2L604.2,267.2z M534.1,325.6h-12.6c-5.6,0-7.2,1.6-7.2,6.8c0,4.7,1.6,7,7,7c4.5-0.1,9-1.3,12.9-3.5
	L534.1,325.6z M551.3,351.6h-14.1l-1.3-4.7c-6.1,4-13.2,6.1-20.4,6.1c-12.6,0-17.9-8.6-17.9-20.4c0-14,6.1-19.3,20-19.3h16.5V306
	c0-7.6-2.1-10.3-13.1-10.3c-6.4,0.1-12.8,0.8-19,2.1l-2.1-13.1c7.7-2.1,15.6-3.2,23.5-3.2c21.6,0,28,7.6,28,24.8L551.3,351.6z
	 M493.8,297.2c-6.3,2.9-12.4,6.2-18.2,10v44.3h-17.2v-68.7h14.5l1.1,7.6c5.6-3.8,11.7-6.8,18.1-9L493.8,297.2L493.8,297.2z
	 M451.8,297.2c-6.3,2.8-12.4,6.2-18.2,10v44.3h-17.2v-68.7h14.5l1.1,7.6c5.6-3.8,11.6-6.8,18-9L451.8,297.2z M367.7,309.9h21.9v-3.4
	c0-6.5-2-11-10.4-11s-11.4,4.5-11.4,11V309.9z M381,338.8c7.1,0,14.2-1.1,21-3.2l2.6,13c-8.1,2.9-16.7,4.4-25.3,4.4
	c-21.6,0-29-10-29-26.5v-18.2c0-14.5,6.5-26.8,28.5-26.8s26.9,12.8,26.9,27.6v14.7h-38v3.5C367.8,335.6,370.6,338.8,381,338.8
	L381,338.8z"/>
<path class="st0" d="M138.4,349.3l44.5,25.7v-51.4l-44.5-25.7V349.3z M89,212.1v51.4l44.5,25.7v-51.4L89,212.1z M187.8,266.6V318
	l44.5-25.7v-51.4L187.8,266.6z M138.4,240.8l44.5,25.7V318l-44.5-25.7V240.8z"/>
</svg>
